<svg xmlns="http://www.w3.org/2000/svg" viewBox="0 0 179.44 211.55"><g style="isolation:isolate"><g id="Capa_2" data-name="Capa 2"><g id="Capa_1-2" data-name="Capa 1"><path d="M172.65,99.36H112.9a6.79,6.79,0,0,0-6.79,6.79V142.4c0,.87,0,1.72,0,2.57-.37,5.2-1.91,8.91-4.68,11.27A18.44,18.44,0,0,1,89,160.72a18.44,18.44,0,0,1-12.51-4.48c-3.2-2.73-4.76-7.26-4.76-13.84V67.47c0-6.57,1.56-11.1,4.77-13.84a19.69,19.69,0,0,1,25,0c3.21,2.74,4.77,7.27,4.77,13.84V80A6.79,6.79,0,0,0,113,86.82h35.57A6.79,6.79,0,0,0,155.4,80V67.47c0-10.93-2-20.79-5.84-29.31a65.52,65.52,0,0,0-15.19-21.38l-.23-.19A69.41,69.41,0,0,0,65.22,4.24,66.07,66.07,0,0,0,44,16.69,63,63,0,0,0,28.39,38.16c-3.88,8.52-5.84,18.38-5.84,29.31V142.4c0,11.42,2,21.43,5.87,29.73A60.19,60.19,0,0,0,44,192.84a62.91,62.91,0,0,0,21.18,12.79,68.64,68.64,0,0,0,47.5,0,66.57,66.57,0,0,0,21.53-12.79,62.22,62.22,0,0,0,15.27-20.71c3.56-7.58,5.51-16.58,5.83-26.77h0c0-.11,0-.23,0-.34a1.34,1.34,0,0,1,0-.2h0l0-.5h17.34a6.79,6.79,0,0,0,6.79-6.78V106.15A6.79,6.79,0,0,0,172.65,99.36Z" style="fill:#009fe3"/><rect y="21.81" width="27.12" height="48.4" rx="6.35" style="fill:#e94e1b;mix-blend-mode:multiply"/><rect x="146.41" y="21.81" width="27.12" height="48.4" rx="6.35" style="fill:#e94e1b;mix-blend-mode:multiply"/><rect y="163.15" width="27.12" height="48.4" rx="6.35" style="fill:#e94e1b;mix-blend-mode:multiply"/><rect x="146.41" y="163.15" width="27.12" height="48.4" rx="6.35" style="fill:#e94e1b;mix-blend-mode:multiply"/><circle cx="89.49" cy="100.78" r="22.83" style="fill:#ffed00;mix-blend-mode:multiply"/><path d="M52.18,62.7H66.66a0,0,0,0,1,0,0V109a0,0,0,0,1,0,0H62.43A10.26,10.26,0,0,1,52.18,98.69v-36A0,0,0,0,1,52.18,62.7Z" style="fill:#ffed00;mix-blend-mode:multiply"/><path d="M120.82,62.7H125a0,0,0,0,1,0,0V109a0,0,0,0,1,0,0H110.56a0,0,0,0,1,0,0V73A10.26,10.26,0,0,1,120.82,62.7Z" transform="translate(235.61 171.65) rotate(-180)" style="fill:#ffed00;mix-blend-mode:multiply"/><rect x="84.55" y="86.69" width="2.7" height="40.87" style="fill:#fff"/><rect x="90.29" y="86.69" width="2.7" height="40.87" style="fill:#fff"/><path d="M77.19,84.76a18.89,18.89,0,0,1,12.06-4,18.84,18.84,0,0,1,12,4V81.18c-2.89-2.43-7.21-3.32-12-3.32s-9.17,1.26-12.06,3.68Z" style="fill:#009fe3"/><path d="M63.58,61.79c.43-3.46,1.14-5.54,7.65-5.54,0-4.86-3-8.79-7.8-8.79a8.78,8.78,0,0,0-8.79,8.79c0,1.44-.62,4.34,0,5.54Z" style="fill:#fff"/><path d="M115.22,61.79c-.43-3.46-1.14-5.54-7.65-5.54,0-4.86,3-8.79,7.81-8.79a8.79,8.79,0,0,1,8.79,8.79c0,1.44.62,4.34,0,5.54Z" style="fill:#fff"/><ellipse cx="88.41" cy="40.4" rx="11.22" ry="5.61" style="fill:none;stroke:#fff;stroke-miterlimit:10;stroke-width:2.94132470345327px"/><ellipse cx="88.41" cy="40.4" rx="3.81" ry="1.9" style="fill:#fff"/><rect x="87.26" y="34.79" width="3.03" height="5.61" style="fill:#fff"/><path d="M117.54,125.59c0,23.59-12.66,42.71-28.29,42.71S61,149.18,61,125.59" style="fill:#e94e1b;mix-blend-mode:multiply"/></g></g></g></svg>