<?xml version="1.0" encoding="utf-8"?>
<!-- Generator: Adobe Illustrator 26.0.1, SVG Export Plug-In . SVG Version: 6.00 Build 0)  -->
<svg version="1.1" id="alex_x5F_y_x5F_vaso" xmlns="http://www.w3.org/2000/svg" xmlns:xlink="http://www.w3.org/1999/xlink"
	 x="0px" y="0px" viewBox="0 0 1920 1080" style="enable-background:new 0 0 1920 1080;" xml:space="preserve">
<style type="text/css">
	.st0{fill:#F0B78C;stroke:#000000;stroke-width:5;stroke-linecap:round;stroke-linejoin:round;stroke-miterlimit:10;}
	.st1{fill:#16950D;stroke:#000000;stroke-width:5;stroke-linecap:round;stroke-linejoin:round;stroke-miterlimit:10;}
	.st2{fill:#039DC9;stroke:#000000;stroke-width:5;stroke-linecap:round;stroke-linejoin:round;stroke-miterlimit:10;}
	.st3{fill:none;stroke:#000000;stroke-width:5;stroke-linecap:round;stroke-linejoin:round;stroke-miterlimit:10;}
	.st4{fill:#FFFFFF;}
	.st5{fill:#FFFFFF;stroke:#000000;stroke-width:5;stroke-linecap:round;stroke-linejoin:round;stroke-miterlimit:10;}
	.st6{fill:#16950D;}
</style>
<g id="alex">
	<path id="bombim" d="M1074.2,727.2H832.9c-30.7,0-55.5-24.9-55.5-55.5v0c0-30.7,24.9-55.5,55.5-55.5h241.3
		c30.7,0,55.5,24.9,55.5,55.5v0C1129.8,702.3,1104.9,727.2,1074.2,727.2z"/>
	<polygon id="cuello" class="st0" points="794.8,830.7 794.8,904.9 1006.8,1092.2 1032,1092.1 1098.2,917.8 809.4,815.2 	"/>
	<path id="camisa_x5F_detras_00000179603825446819822140000018101490306077617578_" class="st1" d="M1031.4,1092.4
		c0,0,39-91.1,34-189.1c0,0,28-2,55,47c0,0,186.8,74.9,214.2,141.7C1334.6,1091.9,1030.4,1091.3,1031.4,1092.4z"/>
	<path id="camisa_x5F_delante" class="st1" d="M1006.8,1092.3H585.4c0,0,0.1-0.3,0.3-0.9c0-0.1,0.1-0.2,0.1-0.3
		c4-10.8,37.1-94,109.6-127.8c0.7-0.3,1.5-0.7,2.2-1c28.2-12.6,47.5-27.4,60.7-41.3c12.8-13.4,19.8-26,23.6-34.7
		c3.3-7.7,4.1-12.4,4.1-12.4c2.9,1.4,5.8,2.7,8.7,4.1c5.6,2.7,11.1,5.5,16.4,8.3c22.1,11.7,41.9,24.3,59.6,37.3
		c18.5,13.6,34.8,27.6,48.9,41.5c61,59.9,83.5,117.1,86.7,125.9c0,0.1,0.1,0.2,0.1,0.3c0.1,0.4,0.2,0.6,0.3,0.8
		C1006.7,1092.2,1006.8,1092.3,1006.8,1092.3z"/>
	<g id="tirantes_00000038403615671570487800000006645657668049911187_">
		<path id="tirante_x5F_delante" class="st2" d="M878.3,1091.1v0.3c0,0.3,0,0.6,0,0.9h-76.6c0-0.3-0.1-0.6-0.1-0.9
			c0-0.1,0-0.2,0-0.3c-2.7-18.2-20.4-109.7-106.1-127.8c-0.3-0.1-0.6-0.1-0.9-0.2l60.9-43.4c0,0,1,0.4,2.9,1.3
			C776.7,929.6,877,980.9,878.3,1091.1z"/>
		<path id="tirante_x5F_detras" class="st2" d="M1121.7,948.2c0,0,43.4,66.1,45.4,144.4h77.5c0,0-30.1-89.6-43.4-106
			C1201.1,986.6,1136.6,947.8,1121.7,948.2z"/>
	</g>
	<path id="rostro" class="st0" d="M775.4,673.9c0,0-64,28.7-25.4,122.4s78.3,38.6,78.3,38.6s19.8,135.6,172,157.7
		s131.2-376.3,131.2-376.3L775.4,673.9z"/>
	<path id="oreja" class="st3" d="M762.4,715.1c0,0,17.3-16,24.7,18.1s10.8,41,10.8,41s-15.5,8.9,4.7,23.6"/>
	<path id="pelo" d="M818.4,803.5h29.7v-70.9c0,0-5.3-94.1,119-78.6s167.4-11.6,167.4-11.6l-0.2-17.8
		c-1.1-100-82.4-180.5-182.4-180.5h0c-100.8,0-182.4,81.7-182.4,182.4V674c0,0,48.9,6,48.9,58.8V803.5z"/>
	<path id="pestañas" d="M938.8,688L938.8,688c3.2,0.6,4.5,0.8,7.7,1.4l0,0c3.7,1.4,4.5,1.6,8.2,3l0,0c2.8,1.6,4,2.3,6.8,3.9l0,0
		c3,2.5,3.7,3.1,6.7,5.6l0,0c2.1,2.5,3,3.5,5,6l0,0c2,3.4,2.4,4.2,4.4,7.6l0,0c1.1,3,1.6,4.3,2.7,7.3l0,0c0.7,3.9,0.8,4.7,1.5,8.6
		l0,0c0,3.2,0,4.6,0,7.8l0,0c-0.7,3.9-0.8,4.7-1.5,8.6l0,0c-1.1,3-1.6,4.3-2.7,7.3l0,0c-2,3.4-2.4,4.2-4.4,7.6l0,0
		c-2.1,2.5-3,3.5-5,6l0,0c-3,2.5-3.7,3.1-6.7,5.6l0,0c-2.8,1.6-4,2.3-6.8,3.9l0,0c-3.7,1.4-4.5,1.6-8.2,3l0,0
		c-3.2,0.6-4.5,0.8-7.7,1.4l0,0c-4,0-4.8,0-8.8,0l0,0c-3.2-0.6-4.5-0.8-7.7-1.4l0,0c-3.7-1.4-4.5-1.6-8.2-3l0,0
		c-2.8-1.6-4-2.3-6.8-3.9l0,0c-3-2.5-3.7-3.1-6.7-5.6l0,0c-2.1-2.5-3-3.5-5-6l0,0c-2-3.4-2.4-4.2-4.4-7.6l0,0
		c-1.1-3-1.6-4.3-2.7-7.3l0,0c-0.7-3.9-0.8-4.7-1.5-8.6l0,0c0-3.2,0-4.6,0-7.8l0,0c0.7-3.9,0.8-4.7,1.5-8.6l0,0
		c1.1-3,1.6-4.3,2.7-7.3l0,0c2-3.4,2.4-4.2,4.4-7.6l0,0c2.1-2.5,3-3.5,5-6l0,0c3-2.5,3.7-3.1,6.7-5.6l0,0c2.8-1.6,4-2.3,6.8-3.9l0,0
		c3.7-1.4,4.5-1.6,8.2-3l0,0c3.2-0.6,4.5-0.8,7.7-1.4l0,0C934,688,934.8,688,938.8,688z"/>
	<circle id="blanco_x5F_ojo" class="st4" cx="934.4" cy="735.4" r="36.3"/>
	<circle id="pupila" cx="934.4" cy="735.4" r="21.9"/>
</g>
<g id="brazo_x5F_y_x5F_vaso">
	<g id="vaso">
		<path id="borde_x5F_vaso" class="st3" d="M1366.1,1141.2c0,0.8-0.1,1.5-0.2,2.3c-3.3,15.8-40.4,28.3-85.8,28.3
			s-82.6-12.5-85.8-28.3c-0.2-0.8-0.2-1.5-0.2-2.3c0-16.9,38.5-30.6,86.1-30.6C1327.6,1110.7,1366.1,1124.3,1366.1,1141.2z"/>
		<path id="cuerpo_x5F_vaso" class="st3" d="M1366.4,1143.5v232.2h-172.8v-232.2h0.6c3.3,15.8,40.4,28.3,85.8,28.3
			s82.6-12.5,85.8-28.3H1366.4z"/>
	</g>
	<path id="superficie_x5F_leche" class="st5" d="M1366.2,1204c0,0.6-0.1,1.1-0.2,1.7c-3.3,11.6-40.6,20.7-86.1,20.7
		s-82.8-9.1-86.1-20.7c-0.2-0.6-0.2-1.1-0.2-1.7c0-12.3,38.6-22.4,86.3-22.4C1327.6,1181.7,1366.2,1191.7,1366.2,1204z"/>
	<path id="leche" class="st5" d="M1366.5,1205.7v170h-173.3v-170h0.6c3.3,11.6,40.6,20.7,86.1,20.7s82.8-9.1,86.1-20.7H1366.5z"/>
	<path id="brazo" class="st0" d="M910.2,1441.9l201.2-115.7l35.9-28.1l28.8-43.1c0,0,23.5-23.5,70.6-27.4c47-3.9,115.7-5.2,116.3,17
		s-139.8,27.4-139.8,27.4s147.7-17,163.3,5.2c15.7,22.2-45.7,29.4-149.6,34.6c0,0,146.4-2,152.2,14.4s-20.3,38.6-156.2,24.2
		c0,0,137.2,3.9,135.9,18.3c-1.3,14.4-8.5,18.9-132.6,23.5c0,0-80.4,41.8-92.8,32.7l-201.2,154.2h-86.9v-135.9L910.2,1441.9z"/>
	<polygon id="puño_x5F_camisa" class="st1" points="1099,1325.3 1143.8,1434.5 1099,1470.1 1054.2,1348.3 	"/>
	<polygon id="manga_x5F_camisa" class="st1" points="1054.2,1348.3 897.8,1421.8 833.5,1421.8 833.5,1594.3 958.8,1594.3 
		1099,1470.1 	"/>
	<g id="boton_x5F_ojo">
		<ellipse id="boton_x5F_venas_x5F_ojo" class="st6" cx="1034.5" cy="1400.7" rx="22.1" ry="22.1"/>
		<ellipse id="boton_x5F_blanco_x5F_ojo" class="st6" cx="1035.9" cy="1396.2" rx="22.1" ry="22.1"/>
		<ellipse id="Boton_x5F_pupila" class="st1" cx="1038" cy="1392.3" rx="10.3" ry="10.3"/>
	</g>
</g>
</svg>
