<?xml version="1.0" encoding="utf-8"?>
<!-- Generator: Adobe Illustrator 26.0.2, SVG Export Plug-In . SVG Version: 6.00 Build 0)  -->
<svg version="1.1" id="Capa_1" xmlns="http://www.w3.org/2000/svg" xmlns:xlink="http://www.w3.org/1999/xlink" x="0px" y="0px"
	 viewBox="0 0 207 297" style="enable-background:new 0 0 207 297;" xml:space="preserve">
<style type="text/css">
	.st0{fill:#E30613;}
	.st1{fill:#009FE3;}
	.st2{fill:#FFED00;}
</style>
<polygon class="st0" points="67.8,9 50.8,9 50.8,25.9 50.8,42.9 50.8,59.8 50.8,76.8 50.8,93.7 50.8,110.7 33.9,110.7 33.9,93.7 
	33.9,76.8 16.9,76.8 0,76.8 0,93.7 0,110.7 0,127.6 16.9,127.6 16.9,144.5 33.9,144.5 50.8,144.5 67.8,144.5 67.8,127.6 84.7,127.6 
	84.7,110.7 84.7,93.7 84.7,76.8 84.7,59.8 84.7,42.9 84.7,25.9 84.7,9 "/>
<path class="st1" d="M169.4,178.4v-16.9h-50.8v16.9h-16.9v101.6h16.9V297h50.8v-16.9h16.9V178.4H169.4z M118.6,195.4h16.9v16.9
	h-16.9L118.6,195.4z M169.4,212.3h-16.9v-16.9h16.9V212.3z"/>
<polygon class="st2" points="84.7,229.2 67.8,229.2 50.8,229.2 50.8,246.2 50.8,263.1 33.9,263.1 33.9,246.2 33.9,229.2 33.9,212.3 
	33.9,195.4 50.8,195.4 50.8,212.3 67.8,212.3 84.7,212.3 84.7,195.4 84.7,178.4 67.8,178.4 67.8,161.5 50.8,161.5 33.9,161.5 
	16.9,161.5 16.9,178.4 0,178.4 0,195.4 0,212.3 0,229.2 0,246.2 0,263.1 0,280.1 16.9,280.1 16.9,297 33.9,297 50.8,297 67.8,297 
	67.8,280.1 84.7,280.1 84.7,263.1 84.7,246.2 101.7,246.2 101.7,229.2 "/>
<polygon class="st1" points="169.4,9 152.5,9 152.5,25.9 152.5,42.9 152.5,59.8 152.5,76.8 152.5,93.7 152.5,110.7 135.5,110.7 
	135.5,93.7 135.5,76.8 135.5,59.8 135.5,42.9 135.5,25.9 135.5,9 118.6,9 101.7,9 101.7,25.9 101.7,42.9 101.7,59.8 101.7,76.8 
	101.7,93.7 101.7,110.7 101.7,127.6 118.6,127.6 118.6,144.5 135.5,144.5 152.5,144.5 169.4,144.5 169.4,127.6 186.4,127.6 
	186.4,110.7 186.4,93.7 186.4,76.8 186.4,59.8 186.4,42.9 186.4,25.9 186.4,9 "/>
<g>
	<rect x="84.4" y="144.5" class="st0" width="16.9" height="16.9"/>
	<rect x="186.1" y="144.5" class="st0" width="16.9" height="16.9"/>
	<path class="st0" d="M152.2,161.5h-50.8v84.7h16.9v-16.9h17v16.9h16.9v-16.9h16.9v16.9h16.9v-84.7H152.2z M118.3,212.3v-16.9h17
		v16.9H118.3z M169.1,212.3h-16.9v-16.9h16.9V212.3z"/>
</g>
</svg>
